<svg fill="none" height="111" viewBox="0 0 259 111" width="259" xmlns="http://www.w3.org/2000/svg" xmlns:xlink="http://www.w3.org/1999/xlink"><linearGradient id="a" gradientUnits="userSpaceOnUse" x1="53.4647" x2=".387428" y1="86.3959" y2="86.3959"><stop offset="0" stop-color="#0e0e0e"/><stop offset="1" stop-color="#0e0e0e" stop-opacity="0"/></linearGradient><rect fill="#3e3e3e" height="34.8683" rx="2" width="120.877" x="68.9618" y="68.9619"/><g fill="#0e0e0e"><rect height="19.3713" rx="2" width="57.339" x="83.684" y="76.7104"/><path d="m53.4647 80.26c0-1.1045.8955-2 2-2h13.497v16.2719h-13.497c-1.1045 0-2-.8954-2-2z"/><path d="m83.684 67.8624c0-1.1045.8954-2 2-2h11.497c1.1046 0 2 .8955 2 2v1.0994h-15.497z"/><path d="m125.526 67.8624c0-1.1045.895-2 2-2h11.497c1.104 0 2 .8955 2 2v1.0994h-15.497z"/></g><path clip-rule="evenodd" d="m160.324 73.145c-6.808 6.8085-6.808 17.8472 0 24.6556 6.809 6.8084 17.848 6.8084 24.656 0l71.731-71.7308c.781-.781.781-2.0473 0-2.8284l-21.827-21.82719c-.781-.781045-2.048-.781045-2.829 0zm19.725 18.6287c3.782-3.7825 3.782-9.9151 0-13.6976-3.783-3.7824-9.915-3.7824-13.698 0-3.782 3.7825-3.782 9.9151 0 13.6976 3.783 3.7825 9.915 3.7825 13.698 0z" fill="#ddd" fill-rule="evenodd"/><circle cx="173.2" cy="84.9249" fill="#fff" r="9.73534" stroke="#313131" stroke-width="3" transform="matrix(.70710678 -.70710678 .70710678 .70710678 -9.321867 147.344822)"/><path d="m0 85.2336h53.4647v2.32455h-53.4647z" fill="url(#a)"/><circle cx="91.4325" cy="67.4121" fill="#0072ce" opacity=".3" r="11.6228"/><circle cx="133.274" cy="67.4121" fill="#0072ce" opacity=".3" r="11.6228"/><path d="m117.333 83-7.333 7.3333-3.333-3.3333" stroke="#8fd6bd" stroke-linecap="round" stroke-linejoin="round" stroke-width="2"/></svg>